<?xml version="1.0" standalone="no"?>
<!DOCTYPE svg PUBLIC "-//W3C//DTD SVG 20010904//EN"
 "http://www.w3.org/TR/2001/REC-SVG-20010904/DTD/svg10.dtd">
<svg version="1.0" xmlns="http://www.w3.org/2000/svg"
 width="500.000000pt" height="500.000000pt" viewBox="0 0 500.000000 500.000000"
 preserveAspectRatio="xMidYMid meet">
<metadata>
Created by potrace 1.14, written by Peter Selinger 2001-2017
</metadata>
<g transform="translate(0.000000,500.000000) scale(0.100000,-0.100000)"
fill="#000000" stroke="none">
<path d="M0 3090 l0 -1500 1125 0 1125 0 0 -119 0 -119 -72 -22 c-173 -52
-333 -171 -391 -290 -112 -229 54 -483 383 -588 121 -39 181 -47 340 -46 133
1 169 5 255 27 274 72 462 237 481 423 21 199 -146 386 -423 475 l-73 23 0
118 0 118 1125 0 1125 0 0 1500 0 1500 -2500 0 -2500 0 0 -1500z m4840 0 l0
-1340 -2340 0 -2340 0 0 1340 0 1340 2340 0 2340 0 0 -1340z"/>
<path d="M1429 3566 c-197 -55 -309 -225 -309 -471 0 -104 14 -172 51 -251 32
-67 111 -149 177 -183 92 -47 265 -65 384 -40 50 11 148 53 148 64 0 3 -12 24
-27 46 -19 28 -31 38 -42 33 -103 -43 -116 -46 -221 -42 -84 3 -114 8 -147 26
-60 31 -111 86 -142 151 -24 52 -26 66 -26 191 0 160 16 217 82 290 64 71 119
94 223 92 47 0 99 -5 115 -9 27 -8 30 -14 33 -56 l3 -47 80 0 80 0 -3 72 -3
73 -40 22 c-67 37 -150 53 -265 52 -58 0 -126 -7 -151 -13z"/>
<path d="M3385 3560 c-123 -40 -181 -122 -173 -243 7 -117 65 -173 272 -261
209 -90 236 -112 236 -200 0 -59 -21 -96 -70 -121 -44 -23 -177 -20 -245 6
l-55 20 0 50 0 49 -75 0 -76 0 3 -77 3 -78 65 -32 c93 -47 193 -67 304 -61
141 8 233 58 277 153 23 50 25 142 4 193 -34 81 -79 111 -337 222 -121 52
-158 89 -158 156 0 99 54 139 185 137 49 0 95 -7 118 -16 35 -15 37 -18 37
-61 l0 -46 80 0 81 0 -3 67 c-3 64 -5 68 -36 90 -71 47 -140 66 -262 69 -94 3
-126 1 -175 -16z"/>
<path d="M1980 3506 l0 -55 43 -3 42 -3 0 -350 0 -350 -42 -3 -43 -3 0 -55 0
-54 170 0 170 0 0 54 0 55 -42 3 -43 3 0 350 0 350 43 3 42 3 0 55 0 54 -170
0 -170 0 0 -54z"/>
<path d="M2400 3460 l0 -100 59 0 60 0 3 43 3 42 88 3 87 3 0 -344 c0 -253 -3
-346 -12 -355 -7 -7 -27 -12 -45 -12 l-33 0 0 -55 0 -55 170 0 170 0 0 54 0
55 -42 3 -43 3 -3 353 -2 352 78 0 c88 0 102 -8 102 -57 l0 -33 55 0 55 0 0
100 0 100 -375 0 -375 0 0 -100z"/>
</g>
</svg>
