<svg width="600" height="600" viewBox="0 0 600 600" fill="none" xmlns="http://www.w3.org/2000/svg">
<mask id="mask0" mask-type="alpha" maskUnits="userSpaceOnUse" x="0" y="0" width="600" height="600">
<path d="M600 300C600 465.685 465.685 600 300 600C134.315 600 0 465.685 0 300C0 134.315 134.315 0 300 0C465.685 0 600 134.315 600 300Z" fill="black"/>
<path d="M299.963 2.32558C135.609 2.32558 2.32558 136.13 2.32558 301.191C2.32558 433.209 87.6093 545.209 205.935 584.763C220.819 587.516 226.251 578.288 226.251 570.363C226.251 563.256 225.991 544.465 225.842 519.535C143.051 537.581 125.563 479.46 125.563 479.46C112.056 444.93 92.5209 435.74 92.5209 435.74C65.4698 417.209 94.5302 417.581 94.5302 417.581C124.409 419.702 140.112 448.391 140.112 448.391C166.679 494.046 209.805 480.874 226.772 473.209C229.451 453.898 237.153 440.726 245.674 433.246C179.591 425.693 110.084 400.056 110.084 285.563C110.084 252.93 121.693 226.251 140.744 205.34C137.656 197.786 127.46 167.386 143.647 126.27C143.647 126.27 168.651 118.233 225.507 156.893C249.247 150.27 274.698 146.958 300.037 146.847C325.302 146.995 350.791 150.27 374.567 156.93C431.386 118.27 456.353 126.307 456.353 126.307C472.577 167.46 462.381 197.823 459.33 205.377C478.419 226.288 489.916 252.967 489.916 285.6C489.916 400.391 420.335 425.656 354.028 433.06C364.707 442.288 374.233 460.521 374.233 488.391C374.233 528.353 373.86 560.577 373.86 570.363C373.86 578.363 379.219 587.665 394.326 584.726C512.465 545.135 597.674 433.172 597.674 301.191C597.674 136.13 464.391 2.32558 299.963 2.32558Z" fill="black"/>
</mask>
<g mask="url(#mask0)">
<path d="M299.963 2C135.43 2 2 135.815 2 300.888C2 432.917 87.377 544.925 205.832 584.482C220.732 587.235 226.171 578.007 226.171 570.081C226.171 562.973 225.91 544.181 225.761 519.249C142.88 537.297 125.372 479.171 125.372 479.171C111.85 444.638 92.294 435.447 92.294 435.447C65.2132 416.915 94.3055 417.288 94.3055 417.288C124.217 419.409 139.937 448.099 139.937 448.099C166.533 493.758 209.706 480.585 226.692 472.92C229.374 453.607 237.085 440.433 245.615 432.954C179.459 425.4 109.876 399.761 109.876 285.259C109.876 252.624 121.498 225.943 140.57 205.029C137.478 197.475 127.272 167.073 143.476 125.954C143.476 125.954 168.508 117.916 225.426 156.579C249.191 149.955 274.67 146.644 300.037 146.532C325.33 146.681 350.846 149.955 374.649 156.616C431.53 117.953 456.524 125.991 456.524 125.991C472.765 167.147 462.559 197.513 459.504 205.067C478.614 225.98 490.124 252.661 490.124 285.296C490.124 400.096 420.466 425.363 354.087 432.768C364.778 441.996 374.314 460.23 374.314 488.102C374.314 528.068 373.941 560.294 373.941 570.081C373.941 578.081 379.305 587.384 394.429 584.444C512.697 544.851 598 432.879 598 300.888C598 135.815 464.57 2 299.963 2Z" fill="black"/>
</g>
</svg>
