<svg width="250" height="209" viewBox="0 0 250 209" fill="none" xmlns="http://www.w3.org/2000/svg">
<ellipse cx="125.5" cy="184.5" rx="37.5" ry="24.5" fill="black"/>
<rect x="113" y="150" width="25" height="35" fill="black"/>
<rect width="250" height="150" fill="black"/>
<rect x="8" y="8" width="234" height="134" fill="#C4C4C4"/>
<path d="M80.136 99.08C75.096 99.08 70.776 98.072 67.176 96.056C63.624 93.992 60.936 91.16 59.112 87.56C57.288 83.912 56.376 79.712 56.376 74.96C56.376 70.16 57.216 65.912 58.896 62.216C60.576 58.52 63.12 55.616 66.528 53.504C69.936 51.392 74.184 50.336 79.272 50.336C82.68 50.336 85.632 50.672 88.128 51.344C90.672 51.968 92.88 52.976 94.752 54.368V61.712H87.192V57.104C85.032 56.144 82.392 55.664 79.272 55.664C74.376 55.664 70.56 57.368 67.824 60.776C65.136 64.184 63.792 68.912 63.792 74.96C63.792 80.864 65.256 85.472 68.184 88.784C71.16 92.096 75.24 93.752 80.424 93.752C82.728 93.752 84.768 93.536 86.544 93.104C88.368 92.672 90.12 91.928 91.8 90.872L94.608 95.336C92.496 96.728 90.312 97.688 88.056 98.216C85.848 98.792 83.208 99.08 80.136 99.08ZM99.4776 92.744H101.566C102.526 92.744 103.198 92.528 103.582 92.096C104.014 91.664 104.23 90.968 104.23 90.008V59.336C104.23 58.424 104.014 57.776 103.582 57.392C103.198 56.96 102.526 56.744 101.566 56.744H99.4776V51.416H116.542V56.744H114.454C113.542 56.744 112.87 56.96 112.438 57.392C112.054 57.776 111.862 58.424 111.862 59.336V90.08C111.862 91.04 112.054 91.736 112.438 92.168C112.87 92.552 113.542 92.744 114.454 92.744H116.542V98H99.4776V92.744ZM130.85 92.672H132.794C133.85 92.672 134.57 92.48 134.954 92.096C135.386 91.664 135.602 90.992 135.602 90.08V56.816H128.978C128.018 56.816 127.322 57.032 126.89 57.464C126.458 57.848 126.242 58.496 126.242 59.408V61.712H120.554V51.488H158.21V61.712H152.522V59.408C152.522 58.448 152.306 57.776 151.874 57.392C151.49 57.008 150.794 56.816 149.786 56.816H143.234V90.08C143.234 90.992 143.426 91.664 143.81 92.096C144.242 92.48 144.986 92.672 146.042 92.672H147.986V98H130.85V92.672ZM177.791 99.08C174.431 99.08 171.239 98.6 168.215 97.64C165.191 96.68 162.599 95.384 160.438 93.752V86.696H168.143V91.376C169.343 92.096 170.807 92.672 172.535 93.104C174.311 93.536 176.111 93.752 177.935 93.752C180.815 93.752 182.999 93.152 184.487 91.952C185.975 90.704 186.719 88.952 186.719 86.696C186.719 85.112 186.311 83.792 185.495 82.736C184.727 81.68 183.623 80.768 182.183 80C180.743 79.232 178.751 78.344 176.207 77.336C172.655 75.944 169.799 74.624 167.639 73.376C165.479 72.128 163.799 70.664 162.599 68.984C161.447 67.256 160.871 65.168 160.871 62.72C160.871 58.64 162.431 55.568 165.551 53.504C168.671 51.392 172.679 50.336 177.575 50.336C180.791 50.336 183.719 50.792 186.359 51.704C189.047 52.616 191.351 53.816 193.271 55.304V62H185.567V57.536C183.455 56.288 180.671 55.664 177.215 55.664C174.431 55.664 172.247 56.216 170.663 57.32C169.079 58.424 168.287 60.152 168.287 62.504C168.287 64.136 168.791 65.504 169.799 66.608C170.807 67.712 171.959 68.576 173.255 69.2C174.551 69.824 176.567 70.688 179.303 71.792C182.951 73.232 185.759 74.504 187.727 75.608C189.695 76.712 191.255 78.128 192.407 79.856C193.559 81.536 194.135 83.72 194.135 86.408C194.135 88.856 193.487 91.04 192.191 92.96C190.943 94.832 189.095 96.32 186.647 97.424C184.199 98.528 181.247 99.08 177.791 99.08Z" fill="black"/>
</svg>
