<svg width="500" height="419" viewBox="0 0 500 419" fill="none" xmlns="http://www.w3.org/2000/svg">
<ellipse cx="250" cy="370" rx="75" ry="49" fill="black"/>
<rect x="225" y="300" width="50" height="70" fill="black"/>
<rect width="500" height="300" fill="black"/>
<rect x="16" y="16" width="468" height="268" fill="#C4C4C4"/>
<path d="M116.456 198.16C109.736 198.16 103.352 197.2 97.304 195.28C91.256 193.36 86.072 190.768 81.752 187.504V173.392H97.16V182.752C99.56 184.192 102.488 185.344 105.944 186.208C109.496 187.072 113.096 187.504 116.744 187.504C122.504 187.504 126.872 186.304 129.848 183.904C132.824 181.408 134.312 177.904 134.312 173.392C134.312 170.224 133.496 167.584 131.864 165.472C130.328 163.36 128.12 161.536 125.24 160C122.36 158.464 118.376 156.688 113.288 154.672C106.184 151.888 100.472 149.248 96.152 146.752C91.832 144.256 88.472 141.328 86.072 137.968C83.768 134.512 82.616 130.336 82.616 125.44C82.616 117.28 85.736 111.136 91.976 107.008C98.216 102.784 106.232 100.672 116.024 100.672C122.456 100.672 128.312 101.584 133.592 103.408C138.968 105.232 143.576 107.632 147.416 110.608V124H132.008V115.072C127.784 112.576 122.216 111.328 115.304 111.328C109.736 111.328 105.368 112.432 102.2 114.64C99.032 116.848 97.448 120.304 97.448 125.008C97.448 128.272 98.456 131.008 100.472 133.216C102.488 135.424 104.792 137.152 107.384 138.4C109.976 139.648 114.008 141.376 119.48 143.584C126.776 146.464 132.392 149.008 136.328 151.216C140.264 153.424 143.384 156.256 145.688 159.712C147.992 163.072 149.144 167.44 149.144 172.816C149.144 177.712 147.848 182.08 145.256 185.92C142.76 189.664 139.064 192.64 134.168 194.848C129.272 197.056 123.368 198.16 116.456 198.16ZM158.674 185.488H162.85C164.77 185.488 166.114 185.056 166.882 184.192C167.746 183.328 168.178 181.936 168.178 180.016V118.672C168.178 116.848 167.746 115.552 166.882 114.784C166.114 113.92 164.77 113.488 162.85 113.488H158.674V102.832H227.65V121.408H213.826V118.528C213.826 116.704 213.394 115.408 212.53 114.64C211.666 113.776 210.274 113.344 208.354 113.344H183.442V144.016H208.354V154.672H183.442V185.488H208.354C210.274 185.488 211.666 185.104 212.53 184.336C213.394 183.472 213.826 182.08 213.826 180.16V177.28H227.65V196H158.674V185.488ZM237.143 185.344H241.319C243.239 185.344 244.583 184.96 245.351 184.192C246.215 183.328 246.647 181.984 246.647 180.16V118.672C246.647 116.848 246.215 115.552 245.351 114.784C244.583 113.92 243.239 113.488 241.319 113.488H237.143V102.832H258.599L302.519 170.944V118.672C302.519 116.848 302.087 115.552 301.223 114.784C300.359 113.92 299.015 113.488 297.191 113.488H292.871V102.832H327.143V113.488H322.823C320.999 113.488 319.655 113.92 318.791 114.784C318.023 115.552 317.639 116.848 317.639 118.672V196H305.687L261.767 128.032V180.16C261.767 181.984 262.199 183.328 263.063 184.192C263.927 184.96 265.271 185.344 267.095 185.344H271.271V196H237.143V185.344ZM336.705 185.632H340.017C341.937 185.632 343.281 185.2 344.049 184.336C344.913 183.472 345.345 182.08 345.345 180.16V118.528C345.345 116.704 344.913 115.408 344.049 114.64C343.281 113.776 341.937 113.344 340.017 113.344H336.705V102.832H378.177C391.521 102.832 401.409 106.912 407.841 115.072C414.369 123.232 417.633 134.8 417.633 149.776C417.633 163.792 414.273 175.024 407.553 183.472C400.929 191.824 391.137 196 378.177 196H336.705V185.632ZM376.161 185.632C385.569 185.632 392.337 182.656 396.465 176.704C400.593 170.752 402.657 161.776 402.657 149.776C402.657 137.488 400.593 128.32 396.465 122.272C392.337 116.224 385.569 113.2 376.161 113.2H360.609V185.632H376.161Z" fill="black"/>
</svg>
