<svg width="250" height="209" viewBox="0 0 250 209" fill="none" xmlns="http://www.w3.org/2000/svg">
<ellipse cx="125.5" cy="184.5" rx="37.5" ry="24.5" fill="black"/>
<rect x="113" y="150" width="25" height="35" fill="black"/>
<rect width="250" height="150" fill="black"/>
<rect x="8" y="8" width="234" height="134" fill="#C4C4C4"/>
<path d="M78.952 92.672H80.896C81.952 92.672 82.672 92.48 83.056 92.096C83.488 91.664 83.704 90.992 83.704 90.08V56.816H77.08C76.12 56.816 75.424 57.032 74.992 57.464C74.56 57.848 74.344 58.496 74.344 59.408V61.712H68.656V51.488H106.312V61.712H100.624V59.408C100.624 58.448 100.408 57.776 99.976 57.392C99.592 57.008 98.896 56.816 97.888 56.816H91.336V90.08C91.336 90.992 91.528 91.664 91.912 92.096C92.344 92.48 93.088 92.672 94.144 92.672H96.088V98H78.952V92.672ZM119.783 99.08C113.927 99.08 109.511 97.472 106.535 94.256C103.559 91.04 102.071 86.552 102.071 80.792C102.071 74.984 103.535 70.472 106.463 67.256C109.439 63.992 113.879 62.36 119.783 62.36C125.687 62.36 130.103 63.992 133.031 67.256C136.007 70.472 137.495 74.984 137.495 80.792C137.495 86.552 136.007 91.04 133.031 94.256C130.055 97.472 125.639 99.08 119.783 99.08ZM119.783 93.68C123.239 93.68 125.807 92.624 127.487 90.512C129.167 88.4 130.007 85.16 130.007 80.792C130.007 76.376 129.167 73.112 127.487 71C125.807 68.84 123.239 67.76 119.783 67.76C116.327 67.76 113.759 68.84 112.079 71C110.447 73.112 109.631 76.376 109.631 80.792C109.631 85.16 110.447 88.4 112.079 90.512C113.759 92.624 116.327 93.68 119.783 93.68ZM141.5 107.792H142.724C143.828 107.792 144.572 107.528 144.956 107C145.388 106.52 145.604 105.704 145.604 104.552V71.36C145.604 70.4 145.388 69.704 144.956 69.272C144.572 68.792 143.924 68.552 143.012 68.552H141.5V63.44H151.436L152.156 68.624C155.036 64.448 159.14 62.36 164.468 62.36C169.268 62.36 173.012 63.92 175.7 67.04C178.436 70.16 179.804 74.6 179.804 80.36C179.804 86.312 178.484 90.92 175.844 94.184C173.204 97.448 169.436 99.08 164.54 99.08C161.948 99.08 159.764 98.696 157.988 97.928C156.26 97.16 154.604 95.84 153.02 93.968V104.552C153.02 105.704 153.212 106.52 153.596 107C154.028 107.528 154.796 107.792 155.9 107.792H157.124V112.976H141.5V107.792ZM162.668 93.464C166.076 93.464 168.524 92.456 170.012 90.44C171.548 88.376 172.316 85.04 172.316 80.432C172.316 75.968 171.596 72.776 170.156 70.856C168.716 68.888 166.316 67.904 162.956 67.904C159.932 67.904 157.556 68.912 155.828 70.928C154.1 72.896 153.236 75.536 153.236 78.848V82.88C153.236 86.288 154.1 88.904 155.828 90.728C157.556 92.552 159.836 93.464 162.668 93.464Z" fill="black"/>
</svg>
